<svg width="12" height="11" viewBox="0 0 12 11" fill="none" xmlns="http://www.w3.org/2000/svg">
<path d="M6.6395 9.34441L6.08087 10.6138C5.86617 11.1019 5.18559 11.1019 4.9709 10.6138L4.41227 9.34441C3.9151 8.2146 3.02031 7.3153 1.90425 6.82372L0.366632 6.14652C-0.122211 5.93117 -0.122211 5.22553 0.366632 5.01024L1.85622 4.35415C3.00106 3.84999 3.91189 2.91734 4.40052 1.74899L4.96638 0.396112C5.17634 -0.105996 5.87542 -0.105996 6.08544 0.396112L6.6513 1.74899C7.13993 2.91728 8.05076 3.84993 9.1956 4.35415L10.6851 5.01024C11.174 5.22559 11.174 5.93117 10.6851 6.14652L9.14757 6.82372C8.03139 7.3153 7.13661 8.2146 6.6395 9.34441Z" fill="url(#paint0_linear_435_116295)"/>
<defs>
<linearGradient id="paint0_linear_435_116295" x1="5.52588" y1="0.0195312" x2="5.52588" y2="10.9799" gradientUnits="userSpaceOnUse">
<stop stop-color="#67B4FA"/>
<stop offset="1" stop-color="white"/>
</linearGradient>
</defs>
</svg>
