<?xml version="1.0" encoding="UTF-8"?>
<svg id="graphics" xmlns="http://www.w3.org/2000/svg" xmlns:xlink="http://www.w3.org/1999/xlink" version="1.1" viewBox="0 0 649.9 326.6">
  <!-- Generator: Adobe Illustrator 30.5.1, SVG Export Plug-In . SVG Version: 2.1.4 Build 3)  -->
  <defs>
    <style>
      .st0 {
        fill: #fff;
      }

      .st1 {
        fill: #3a5a40;
      }
    </style>
  </defs>
  <path class="st0" d="M0,311.6l1.9-3.3c2.3,2,6.2,3.4,10.3,3.4s8.8-2,8.8-5.5c0-6.9-16.9-2.2-16.9-12.5s5.1-9.6,12.9-9.6,7.8,1.1,10.1,2.9l-1.7,3.3c-2.3-1.8-5.7-2.6-8.7-2.6-5.5,0-8.6,2.3-8.6,5.6,0,7.1,16.9,2.3,16.9,12.5s-5.3,9.6-13.2,9.6-9.5-1.6-11.8-3.7Z"/>
  <rect class="st1" x="492.3" y="129" width="69.4" height="73.5"/>
  <path class="st0" d="M63.7,284.3l-6,30.7h-3.9l1-4.9c-2.9,3.6-6.9,5.2-11.5,5.2-6.7,0-10.6-3.7-10.6-10s.1-2.2.3-3.4l3.4-17.5h4l-3.4,17.5c-.2,1-.3,1.9-.3,2.7,0,4.4,2.5,7,7.6,7s10.7-3.6,12.1-10.7l3.2-16.5h4Z"/>
  <path class="st0" d="M65.9,311.6l1.9-3.3c2.3,2,6.2,3.4,10.3,3.4s8.8-2,8.8-5.5c0-6.9-16.9-2.2-16.9-12.5s5.1-9.6,12.9-9.6,7.8,1.1,10.1,2.9l-1.7,3.3c-2.3-1.8-5.7-2.6-8.7-2.6-5.5,0-8.6,2.3-8.6,5.6,0,7.1,16.9,2.3,16.9,12.5s-5.3,9.6-13.2,9.6-9.5-1.6-11.8-3.7Z"/>
  <path class="st0" d="M103.2,305.7c-.1.7-.2,1.3-.2,1.9,0,2.6,1.4,4.1,4.3,4.1s3.2-.5,4.6-1.6l1,3.2c-1.9,1.5-4.4,2-6.6,2-4.5,0-7.3-2.6-7.3-7s0-1.6.2-2.4l3.5-18.1h-5.3l.6-3.5h5.3l1.3-6.7h4l-1.3,6.7h9.1l-.7,3.5h-9.1l-3.5,17.9Z"/>
  <path class="st0" d="M151.8,284.3l-6,30.7h-3.9l1-4.8c-2.8,3.2-6.8,5.1-11.6,5.1-7.7,0-13-4.9-13-13s7.1-18.2,16.8-18.2,9.6,2.4,11.3,6.7l1.2-6.4h4ZM145.1,297.3c0-6-3.6-9.6-9.8-9.6s-12.9,6.1-12.9,14.4,3.6,9.5,9.8,9.5,12.9-6,12.9-14.3Z"/>
  <path class="st0" d="M163,284.3h4l-5.9,30.7h-4l5.9-30.7ZM164.1,275.7c0-1.8,1.2-3.1,2.9-3.1s2.6,1,2.6,2.5-1.3,3.1-2.9,3.1-2.5-1.1-2.5-2.5Z"/>
  <path class="st0" d="M203.5,294.1c0,1.1-.1,2.3-.3,3.5l-3.4,17.4h-4l3.4-17.5c.2-1,.3-1.9.3-2.8,0-4.4-2.6-6.9-7.7-6.9s-10.7,3.6-12.1,10.7l-3.2,16.5h-4l5.9-30.7h3.9l-1,4.9c2.9-3.5,7-5.1,11.7-5.1,6.7,0,10.7,3.7,10.7,10Z"/>
  <path class="st0" d="M244,284.3l-6,30.7h-3.9l1-4.8c-2.8,3.2-6.8,5.1-11.6,5.1-7.7,0-13-4.9-13-13s7.1-18.2,16.8-18.2,9.6,2.4,11.3,6.7l1.2-6.4h4ZM237.3,297.3c0-6-3.6-9.6-9.8-9.6s-12.9,6.1-12.9,14.4,3.6,9.5,9.8,9.5,12.9-6,12.9-14.3Z"/>
  <path class="st0" d="M282.7,297c0,10.6-7.1,18.3-16.9,18.3s-9.7-2.5-11.4-7l-1.3,6.7h-3.9l8.4-43.3h4l-3.3,17.2c2.8-3,6.6-4.8,11.3-4.8,7.7,0,13,4.9,13,13ZM278.6,297.3c0-6-3.6-9.6-9.8-9.6s-12.9,6-12.9,14.4,3.6,9.5,9.8,9.5,12.9-6,12.9-14.3Z"/>
  <path class="st0" d="M293.6,284.3h4l-5.9,30.7h-4l5.9-30.7ZM294.7,275.7c0-1.8,1.2-3.1,2.9-3.1s2.6,1,2.6,2.5-1.3,3.1-2.9,3.1-2.5-1.1-2.5-2.5Z"/>
  <path class="st0" d="M311.3,271.7h4l-8.4,43.3h-4l8.4-43.3Z"/>
  <path class="st0" d="M324.1,284.3h4l-5.9,30.7h-4l5.9-30.7ZM325.1,275.7c0-1.8,1.2-3.1,2.9-3.1s2.5,1,2.5,2.5-1.3,3.1-2.9,3.1-2.6-1.1-2.6-2.5Z"/>
  <path class="st0" d="M339.9,305.7c-.1.7-.2,1.3-.2,1.9,0,2.6,1.4,4.1,4.3,4.1s3.2-.5,4.6-1.6l1,3.2c-1.9,1.5-4.4,2-6.6,2-4.5,0-7.3-2.6-7.3-7s0-1.6.2-2.4l3.5-18.1h-5.3l.6-3.5h5.3l1.3-6.7h4l-1.3,6.7h9.1l-.7,3.5h-9.1l-3.5,17.9Z"/>
  <path class="st0" d="M386.9,284.3l-21.8,34.7c-3.7,5.8-6.5,7.6-10.8,7.6s-5.6-1-7.1-2.7l2.2-3c1.3,1.4,3,2.2,5.3,2.2s4.5-1.2,6.9-5l2.1-3.3-7.4-30.5h4.1l6.2,26.1,16.3-26.1h4.1Z"/>
  <path class="st0" d="M434.9,297c0,10.6-7.1,18.3-16.9,18.3s-9.6-2.4-11.3-6.7l-3.4,17.7h-4l8.1-42h3.9l-1,4.9c2.8-3.3,6.8-5.1,11.6-5.1,7.7,0,13,4.9,13,13ZM430.8,297.3c0-6-3.6-9.6-9.8-9.6s-12.9,6-12.9,14.4,3.6,9.5,9.8,9.5,12.9-6,12.9-14.3Z"/>
  <path class="st0" d="M448.2,271.7h4l-8.4,43.3h-4l8.4-43.3Z"/>
  <path class="st0" d="M488.3,284.3l-6,30.7h-3.9l1-4.8c-2.8,3.2-6.8,5.1-11.6,5.1-7.7,0-13-4.9-13-13s7.1-18.2,16.8-18.2,9.6,2.4,11.3,6.7l1.2-6.4h4ZM481.6,297.3c0-6-3.6-9.6-9.8-9.6s-12.9,6.1-12.9,14.4,3.6,9.5,9.8,9.5,12.9-6,12.9-14.3Z"/>
  <path class="st0" d="M500,305.7c-.1.7-.2,1.3-.2,1.9,0,2.6,1.4,4.1,4.3,4.1s3.2-.5,4.6-1.6l1,3.2c-1.9,1.5-4.4,2-6.6,2-4.5,0-7.3-2.6-7.3-7s0-1.6.2-2.4l3.5-18.1h-5.3l.6-3.5h5.3l1.3-6.7h4l-1.3,6.7h9.1l-.7,3.5h-9.1l-3.5,17.9Z"/>
  <path class="st0" d="M527,280.9l-.7,3.4h9.1l-.7,3.5h-9l-5.3,27.2h-4l5.3-27.2h-5.3l.6-3.5h5.4l.7-3.9c1.1-5.8,4.6-9,10.2-9s4.6.7,6,2l-1.8,3c-1.1-1-2.6-1.5-4.3-1.5-3.5,0-5.5,1.9-6.3,6Z"/>
  <path class="st0" d="M534.2,302.3c0-10.4,7.2-18.2,17.2-18.2s13.5,5,13.5,13-7.2,18.3-17.2,18.3-13.5-5.1-13.5-13ZM560.9,297.3c0-6-3.6-9.6-9.8-9.6s-12.9,6.1-12.9,14.4,3.6,9.5,9.8,9.5,12.9-6,12.9-14.3Z"/>
  <path class="st0" d="M590.9,284.1l-.7,4c-.4,0-.7,0-1.1,0-6.3,0-10.6,3.7-12.1,11.4l-3,15.6h-4l5.9-30.7h3.9l-1,5.6c2.7-4,6.6-5.8,12.2-5.8Z"/>
  <path class="st0" d="M645.2,293.9c0,1.1-.2,2.3-.4,3.6l-3.4,17.4h-4l3.4-17.5c.2-1.1.3-2,.3-2.9,0-4.3-2.4-6.8-7.4-6.8s-10.2,3.4-11.6,10.3l-3.3,16.9h-4l3.4-17.5c.2-1,.3-1.9.3-2.8,0-4.4-2.4-6.9-7.4-6.9s-10.3,3.6-11.7,10.7l-3.2,16.5h-4l5.9-30.7h3.9l-1,4.9c2.8-3.6,6.7-5.1,11.3-5.1s8.4,2.2,9.7,6.1c3-4.1,7.4-6.1,12.6-6.1s10.5,3.7,10.5,9.9Z"/>
  <path class="st0" d="M71.5,228.1C24.2,226.5.6,195.8.6,136.5S24.5,47.5,72.1,47.1c49.7,0,73,34,70,102.2H41.1c1.5,26.7,11.8,40.2,31,40.2s17.7-4.3,25.4-12.5c3.5-4.3,8-6.3,13.3-6.3h29c-8.6,36.9-29.9,57.4-68.3,57.4ZM41.7,118h58.8c-2.4-23.1-12.1-34.9-29-34.9s-26.9,11.9-29.9,34.9Z"/>
  <path class="st0" d="M273.7,224.2c-13-1-19.5-7.9-19.5-21.8v-89.7c-.9-18.1-9.8-27-27.2-27s-26.3,8.9-26.6,27v111.4h-39.9v-102.5c0-49.8,22.5-74.5,67.1-74.5s66.5,24.7,66.2,74.5v102.5h-20.1Z"/>
  <path class="st0" d="M454.6,49.8l-55.3,174.4h-41.7l-55-174.4h43.4l31.6,122.3,27.2-106.8c3-10.2,9.5-15.5,19.2-15.5h30.4Z"/>
  <path class="st0" d="M503.9,95.3h-39.3c4.7-32.3,25.1-48.1,61.2-48.1s65,15.8,65.9,48.1v59.3c0,48.1-26,69.6-68.3,72.9-37.5,3.3-63.5-16.2-63.5-54.7.9-41.9,28.1-53.1,67.7-57.4,16.8-2.3,25.4-7.9,25.4-17.5-.9-9.9-9.2-14.8-25.4-14.8s-21.6,4-23.6,12.2ZM553.6,152.6v-16.2c-9.2,4.3-19.8,7.9-31.3,10.5-15.7,3.3-23.6,11.5-23.6,24.4.9,13.8,7.4,20.4,19.8,20.4,21.9,0,35.2-14.5,35.2-39.2Z"/>
  <path class="st0" d="M631,0c13,0,19.2,7.3,18.9,21.4v12.9h-39.3V0h20.4ZM631,49.8c12.7,0,18.9,6.9,18.9,21.1v153.3h-39.3V49.8h20.4Z"/>
</svg>
