<?xml version="1.0" encoding="UTF-8"?>
<svg id="katman_1" data-name="katman 1" xmlns="http://www.w3.org/2000/svg" xmlns:xlink="http://www.w3.org/1999/xlink" viewBox="0 0 4.9 4.85">
  <defs>
    <style>
      .cls-1 {
        fill: url(#Adsız_degrade);
      }
    </style>
    <linearGradient id="Adsız_degrade" data-name="Adsız degrade" x1=".04" y1="5.11" x2="4.9" y2="5.11" gradientTransform="translate(0 7.54) scale(1 -1)" gradientUnits="userSpaceOnUse">
      <stop offset="0" stop-color="#6c2472"/>
      <stop offset="1" stop-color="#b51f6d"/>
    </linearGradient>
  </defs>
  <path class="cls-1" d="M4.9,1.09c-.1-.09-.2-.18-.31-.27-.14-.11-.29-.2-.44-.29-.22-.13-.47-.21-.71-.28-.13-.03-.26-.05-.38-.06-.12-.01-.22-.02-.34-.01-.22,0-.45.03-.66.1-.23.06-.45.16-.65.29-.14.09-.26.18-.36.29-.26.25-.44.54-.55.87-.05.16-.1.33-.12.49-.01.1-.02.19-.02.29.05,1.5,1.28,1.82,1.61,1.9.65.15,1.09-.07,1.25-.2.13-.11.23-.25.31-.39v-.02s-.03.02-.04.02c-.2.13-.42.21-.65.25-.09.01-.18.02-.27.03-.23.01-.46-.02-.67-.11-.25-.1-.45-.25-.62-.45-.16-.2-.27-.44-.31-.69-.02-.14-.03-.28-.02-.42,0-.17.04-.33.11-.49.09-.23.22-.43.4-.6.19-.17.42-.3.66-.37.12-.03.23-.06.36-.07.09,0,.16-.01.25,0,.17,0,.34.03.5.09h.03c-.07-.01-.17-.03-.26-.05-.05,0-.11-.02-.16-.02h-.25c-.22,0-.44.05-.65.15-.17.07-.32.18-.45.31-.26.25-.43.53-.5.88-.01.07-.02.15-.03.22-.02.26.04.5.15.72.04.1.12.18.18.27.12.14.26.25.42.34.18.11.37.17.58.2.1.01.2.02.3.01.16,0,.32-.04.46-.12.07-.04.15-.1.22-.15.16-.12.28-.28.37-.45.06-.12.11-.25.13-.38.01-.1.02-.2.02-.3,0-.21-.04-.42-.12-.62v-.02s.04.03.06.05c.13.11.23.23.31.38.06.12.1.25.11.38,0,.06.01.14,0,.2,0,.17-.04.34-.11.51-.06.18-.15.34-.27.5-.14.19-.3.37-.5.51,0,0-.01,0-.01.02.02-.01.05-.02.07-.04.18-.11.35-.23.5-.38.17-.18.32-.37.42-.6.07-.15.12-.31.14-.48.01-.1.02-.19.02-.29,0-.28-.09-.53-.23-.77-.17-.28-.39-.51-.68-.68-.16-.1-.33-.15-.51-.19-.13-.02-.26-.04-.38-.04-.21,0-.42.04-.62.13-.19.09-.35.19-.49.34-.18.19-.31.42-.36.68-.02.11-.03.2-.03.31,0,.32.12.61.33.85.12.13.26.23.42.31.09.04.18.06.28.07.09,0,.16.02.25.01.22,0,.44-.06.62-.18.16-.1.28-.23.34-.4.03-.07.04-.15.06-.22.01-.06.02-.13.01-.19,0-.18-.05-.35-.18-.49-.13-.15-.29-.27-.49-.3-.21-.04-.39.02-.54.16-.1.09-.15.2-.17.33-.03.18.03.34.16.47.17.15.37.2.6.14.1-.03.17-.1.22-.18.05-.09.1-.18.1-.28v-.12c.05.07.09.15.11.23.03.2-.04.35-.14.5-.16.22-.38.35-.76.36-.25,0-.46-.09-.64-.25-.21-.19-.33-.42-.37-.69-.02-.15-.02-.3.03-.44.03-.1.1-.19.17-.27h.02s-.01.06-.02.1c-.02.12-.02.23,0,.35.01.04.03.09.06.12l.03-.1c.12-.31.34-.51.67-.61.07-.02.16-.03.25-.04.2,0,.39.03.56.13.15.09.27.2.34.35.06.13.11.27.12.42,0,.06.01.12.01.18,0,.25-.06.48-.22.67-.1.12-.22.2-.37.27-.14.06-.28.1-.44.11-.28.02-.54-.04-.79-.17-.22-.12-.4-.28-.53-.5-.09-.14-.14-.3-.16-.46-.02-.12-.03-.25-.02-.36.02-.33.12-.63.33-.88.16-.19.35-.33.58-.43.14-.06.29-.1.44-.13.14-.02.27-.02.4-.01.26.01.49.07.72.19.14.07.27.16.38.27.16.14.29.3.39.48s.19.38.22.6c.02.12.03.25.03.37-.01.21-.05.42-.13.62-.07.21-.19.4-.33.59-.15.18-.33.34-.53.47-.19.12-.4.2-.63.26-.14.03-.28.04-.42.05-.14,0-.29,0-.43-.02-.27-.03-.52-.11-.76-.21-.2-.1-.38-.21-.56-.36-.22-.18-.37-.42-.49-.67-.09-.18-.15-.36-.19-.55-.02-.13-.04-.26-.04-.39v-.29c.01-.2.05-.42.12-.61.11-.34.28-.65.52-.92C.95.47,1.33.22,1.79.1c.16-.04.32-.07.48-.09.09,0,.18-.01.27-.01h.31c.35.03.68.11,1,.26.22.11.44.23.63.4.15.13.29.28.39.44h.03Z"/>
</svg>