<svg width="140" height="42" viewBox="0 0 140 42" fill="none" xmlns="http://www.w3.org/2000/svg">
  <path d="M18.5 5.5C10.6 7.9 5 15.1 5 23.2c0 7.2 4.5 12.7 11.2 13.8 8.2 1.4 16.4-4.8 18.8-14.6C28 22.6 21.9 18.8 18.5 5.5Z" fill="#588157"/>
  <path d="M19.3 11.2c1.6 8.6 6 12.1 12.8 13.5-2.3 6-7.7 10-13.3 9.2-5.1-.7-8.4-4.8-8.4-10 0-5.2 3.5-10.2 8.9-12.7Z" fill="#3A5A40"/>
  <path d="M49 12h24v5.6H55.8v6.2h15.3v5.3H55.8v6.4H74V41H49V12Zm31.2 0h6.4l14 18.3V12h6.7v29h-5.8L86.9 21.9V41h-6.7V12Zm37.9 0h7.2L138 41h-7.3l-2.6-6.3h-13.3l-2.6 6.3h-7L118.1 12Zm7.8 17.4-4.4-10.6-4.4 10.6h8.8Z" fill="#102326"/>
</svg>
