<svg width="14" height="17" viewBox="0 0 14 17" fill="none" xmlns="http://www.w3.org/2000/svg">
<path d="M3.97839 15.9479L3.82127 16.3053C3.70626 16.5668 3.3412 16.5668 3.22625 16.3053L3.06907 15.9479C2.789 15.3108 2.28457 14.8035 1.655 14.526L1.17091 14.3126C0.909175 14.1972 0.909175 13.8197 1.17091 13.7042L1.62791 13.5027C2.27369 13.2181 2.78715 12.6921 3.06244 12.0333L3.2238 11.6471C3.33625 11.378 3.71126 11.378 3.82371 11.6471L3.98508 12.0333C4.26036 12.6921 4.77388 13.2181 5.41961 13.5027L5.8766 13.7042C6.13839 13.8197 6.13839 14.1972 5.8766 14.3126L5.39251 14.526C4.763 14.8035 4.25851 15.3108 3.97844 15.9479H3.97839Z" fill="url(#paint0_linear_424_114333)"/>
<path d="M8.60944 9.82656L8.05071 11.0962C7.83598 11.5843 7.15528 11.5843 6.94054 11.0962L6.38181 9.82656C5.88456 8.69654 4.98961 7.79709 3.87334 7.30542L2.33545 6.6281C1.84652 6.41271 1.84652 5.70694 2.33545 5.49161L3.82531 4.8354C4.97035 4.33115 5.88135 3.39833 6.37006 2.22977L6.93603 0.876649C7.14603 0.37445 7.84523 0.37445 8.05528 0.876649L8.62125 2.22977C9.10996 3.39828 10.021 4.33109 11.166 4.8354L12.6558 5.49161C13.1447 5.707 13.1447 6.41271 12.6558 6.6281L11.118 7.30542C10.0016 7.79709 9.10664 8.69654 8.60944 9.82656Z" fill="url(#paint1_linear_424_114333)"/>
<defs>
<linearGradient id="paint0_linear_424_114333" x1="3.52378" y1="11.4453" x2="3.52378" y2="16.5014" gradientUnits="userSpaceOnUse">
<stop stop-color="#F8F8F8" stop-opacity="0.9"/>
<stop offset="1" stop-color="#002F5A"/>
</linearGradient>
<linearGradient id="paint1_linear_424_114333" x1="7.49563" y1="0.5" x2="7.49563" y2="11.4623" gradientUnits="userSpaceOnUse">
<stop stop-color="#F8F8F8" stop-opacity="0.9"/>
<stop offset="1" stop-color="#002F5A"/>
</linearGradient>
</defs>
</svg>
