<?xml version="1.0" encoding="UTF-8"?>
<svg id="katman_1" xmlns="http://www.w3.org/2000/svg" version="1.1" viewBox="0 0 269 62">
  <!-- Generator: Adobe Illustrator 30.0.0, SVG Export Plug-In . SVG Version: 2.1.1 Build 123)  -->
  <defs>
    <style>
      .st0 {
        fill: #fff;
      }
    </style>
  </defs>
  <path class="st0" d="M61.51,14.53c-1.21-1.05-2.51-2.23-3.86-3.34-1.68-1.38-3.52-2.53-5.44-3.57-2.81-1.52-5.77-2.69-8.89-3.41-1.58-.36-3.2-.63-4.81-.81-1.39-.16-2.82-.22-4.22-.2-2.78.05-5.51.46-8.2,1.22-2.88.82-5.58,2.02-8.1,3.59-1.66,1.02-3.18,2.21-4.55,3.57-3.13,3.1-5.42,6.71-6.87,10.83-.7,1.99-1.19,4.02-1.43,6.11-.13,1.16-.22,2.34-.2,3.52.71,18.64,15.88,22.55,19.94,23.52,8.02,1.87,13.44-.9,15.4-2.54,1.63-1.36,2.84-3.03,3.78-4.9.03-.06.05-.12.1-.26-.21.13-.36.21-.51.29-2.49,1.53-5.15,2.62-8.05,3.09-1.09.17-2.19.27-3.3.33-2.89.16-5.69-.32-8.37-1.33-3.06-1.16-5.59-3.04-7.62-5.58-2.03-2.53-3.26-5.41-3.86-8.56-.32-1.7-.4-3.41-.3-5.13.12-2.09.57-4.13,1.33-6.09,1.11-2.85,2.79-5.34,5.08-7.42,2.38-2.17,5.12-3.73,8.23-4.67,1.47-.44,2.96-.77,4.5-.86,1-.06,2-.14,2.99-.11,2.12.07,4.21.39,6.24,1.02.14.05.29.09.35.1-.99-.19-2.07-.42-3.15-.6-.67-.11-1.34-.2-2.01-.24-1-.06-2-.08-3-.06-2.8.05-5.47.67-8,1.85-2.08.97-3.94,2.22-5.6,3.78-3.21,3.03-5.34,6.65-6.2,10.94-.18.92-.29,1.87-.34,2.8-.21,3.16.49,6.15,1.89,8.99.59,1.19,1.42,2.23,2.3,3.23,1.46,1.66,3.16,3.06,5.08,4.18,2.23,1.3,4.6,2.18,7.17,2.57,1.25.19,2.5.25,3.75.17,2-.13,3.94-.53,5.73-1.42.97-.48,1.86-1.14,2.72-1.8,1.96-1.5,3.49-3.37,4.63-5.53.78-1.5,1.36-3.09,1.6-4.76.17-1.22.32-2.46.31-3.68-.02-2.63-.56-5.18-1.48-7.65-.03-.09-.06-.18-.05-.33.27.21.55.4.81.62,1.61,1.32,2.92,2.89,3.84,4.74.74,1.5,1.23,3.08,1.36,4.75.07.83.14,1.67.11,2.5-.09,2.17-.55,4.27-1.3,6.31-.8,2.19-1.89,4.24-3.23,6.15-1.71,2.42-3.73,4.57-6.18,6.3-.08.06-.15.12-.18.25.32-.17.63-.32.94-.49,2.27-1.3,4.33-2.85,6.15-4.7,2.15-2.19,3.92-4.65,5.2-7.44.86-1.9,1.5-3.87,1.77-5.92.16-1.19.25-2.41.21-3.6-.11-3.4-1.07-6.59-2.88-9.49-2.15-3.44-4.94-6.3-8.51-8.39-1.95-1.14-4.05-1.9-6.29-2.32-1.55-.29-3.1-.52-4.69-.51-2.64.02-5.17.55-7.59,1.58-2.33,1.01-4.37,2.42-6.12,4.22-2.3,2.38-3.79,5.2-4.48,8.41-.27,1.26-.43,2.53-.39,3.82.12,4,1.41,7.57,4.13,10.61,1.43,1.6,3.14,2.85,5.08,3.79,1.09.52,2.26.78,3.45.93,1.01.13,2.04.21,3.05.19,2.76-.06,5.35-.73,7.67-2.23,1.93-1.24,3.39-2.88,4.24-4.97.36-.9.55-1.87.74-2.82.14-.76.21-1.55.19-2.33-.05-2.24-.69-4.31-2.19-6.04-1.62-1.86-3.59-3.24-6.07-3.7-2.59-.48-4.89.21-6.77,2.04-1.16,1.12-1.81,2.5-2.09,4.06-.42,2.28.33,4.21,2.01,5.74,2.08,1.89,4.57,2.5,7.34,1.71,1.24-.36,2.11-1.22,2.81-2.24.72-1.05,1.12-2.2,1.18-3.47.02-.47,0-.94,0-1.48.66.91,1.12,1.84,1.36,2.86.46,2.47-.52,4.35-1.66,6.26-2,2.71-4.7,4.38-9.36,4.48-3.03-.11-5.71-1.05-7.97-3.07-2.61-2.31-4.1-5.2-4.64-8.58-.3-1.85-.21-3.68.42-5.47.44-1.25,1.16-2.34,2.16-3.24.05-.04.1-.08.21-.17-.1.49-.18.9-.25,1.32-.22,1.47-.32,2.94.1,4.4.14.51.35,1.01.75,1.43.15-.41.28-.78.42-1.16,1.49-3.83,4.26-6.33,8.26-7.53.99-.29,2-.43,3.04-.48,2.49-.12,4.82.41,6.98,1.65,1.83,1.05,3.31,2.47,4.25,4.34.81,1.6,1.31,3.31,1.51,5.09.09.74.19,1.49.18,2.23-.05,3.07-.77,5.92-2.79,8.37-1.23,1.49-2.81,2.51-4.57,3.29-1.7.75-3.48,1.16-5.35,1.3-3.46.25-6.71-.49-9.75-2.08-2.8-1.46-5.06-3.48-6.64-6.2-1.01-1.76-1.66-3.64-2.01-5.62-.27-1.49-.34-2.99-.25-4.48.23-4.05,1.42-7.77,4.06-10.96,1.93-2.33,4.33-4.07,7.14-5.28,1.76-.76,3.59-1.25,5.47-1.55,1.66-.26,3.33-.29,4.99-.19,3.14.19,6.14.98,8.94,2.39,1.75.88,3.33,1.97,4.78,3.29,1.92,1.75,3.55,3.71,4.86,5.92,1.36,2.29,2.33,4.74,2.84,7.35.29,1.51.46,3.03.37,4.56-.14,2.64-.67,5.21-1.61,7.69-.99,2.64-2.36,5.07-4.14,7.28-1.85,2.3-4.04,4.25-6.57,5.82-2.42,1.51-5.02,2.55-7.83,3.1-1.71.33-3.42.57-5.16.66-1.77.09-3.52,0-5.28-.21-3.29-.39-6.44-1.3-9.43-2.69-2.52-1.18-4.82-2.69-6.94-4.47-2.73-2.29-4.59-5.17-6.12-8.29-1.09-2.2-1.83-4.51-2.32-6.91-.32-1.59-.55-3.19-.57-4.82-.02-1.17-.06-2.35.02-3.52.17-2.57.64-5.08,1.43-7.54,1.35-4.21,3.45-8.01,6.4-11.35,3.87-4.36,8.63-7.34,14.29-8.96,1.93-.55,3.9-.93,5.91-1.11,1.09-.1,2.19-.17,3.29-.19,1.27-.02,2.53-.02,3.79.08,4.3.33,8.44,1.35,12.36,3.14,2.84,1.29,5.43,2.94,7.77,4.98,1.88,1.63,3.51,3.48,4.82,5.4v-.02Z"/>
  <g>
    <path class="st0" d="M62.71,12.87c2.14-.56,4.85-.91,7.45-.91,3.75,0,7.09.7,9.38,3.49,2.14,2.58,2.76,5.72,2.76,9.76,0,5.02-1.83,9.55-5.42,11.78v.14c2.4,1.26,3.6,4.25,4.28,9.27.68,5.23,1.61,11.02,2.24,12.76h-7.14c-.42-1.32-1.2-6.07-1.72-11.22-.62-5.86-1.72-7.53-4.01-7.53h-.99v18.75h-6.83V12.87h0ZM69.53,33.37h1.2c2.97,0,4.69-3.21,4.69-7.32s-1.2-6.83-4.28-6.97c-.58,0-1.25.07-1.61.28,0,0,0,14.01,0,14.01Z"/>
    <path class="st0" d="M107.94,34.84c0,17.7-4.69,24.89-11.36,24.89-7.98,0-11.1-11.29-11.1-24.19s3.8-23.91,11.57-23.91c8.5,0,10.89,12.48,10.89,23.21h0ZM92.57,35.67c0,10.67,1.51,16.11,4.28,16.11s3.96-6.97,3.96-16.52c0-8.23-.94-15.68-4.01-15.68-2.71,0-4.22,6-4.22,16.11h0Z"/>
    <path class="st0" d="M116.17,59.16v-17.99l-7.71-29h7.3l2.4,11.22c.62,2.99,1.3,6.48,1.83,9.97h.1c.42-3.42.99-6.83,1.61-10.18l2.09-11.02h7.09l-7.87,28.65v18.34h-6.83Z"/>
    <path class="st0" d="M137.18,48.43l-1.56,10.73h-6.62l7.61-46.99h8.18l6.83,46.99h-6.62l-1.51-10.73h-6.31ZM142.86,41.32l-1.15-9.83c-.36-2.86-.83-7.53-1.15-10.67h-.16c-.36,3.14-.89,8.02-1.25,10.73l-1.3,9.76h5Z"/>
    <path class="st0" d="M155.47,12.18h6.83v39.25h9.01v7.74h-15.84V12.18Z"/>
    <path class="st0" d="M240.88,5.34c0-1.74,1.04-3.07,2.35-3.07s2.29,1.32,2.29,3.07-1.04,3.14-2.29,3.14-2.35-1.4-2.35-3.14ZM245.15,12.18v46.99h-4.01V12.18h4.01Z"/>
    <g>
      <path class="st0" d="M179.2,12.56h16.9v5.56h-5.82v41.6h-5.09V18.13h-5.99v-5.56h0Z"/>
      <path class="st0" d="M203.73,12.56h4.04l8.26,47.16h-5.14l-1.45-9.19h-7.64l-1.47,9.19h-4.99l8.39-47.16h0ZM208.7,45.61l-1.15-7.52c-.77-5.11-1.39-10.57-1.87-16.37-.23,2.83-.53,5.69-.9,8.6-.36,2.9-.8,5.98-1.3,9.24l-.95,6.05h6.16,0Z"/>
      <path class="st0" d="M219.08,12.56h5.19v22.84l7.24-22.84h5.24l-7.59,22.84,8.19,24.31h-5.84l-7.24-24.31v24.31h-5.19V12.56h0Z"/>
      <path class="st0" d="M251.73,12.56h6.84c3.3,0,5.69,1.02,7.19,3.05,1.5,2.05,2.24,5.31,2.24,9.77,0,6.27-1.51,10.32-4.52,12.16-1.52.84-3.7,1.25-6.56,1.25v20.92h-5.19V12.56ZM256.92,33.36c2.15,0,3.63-.53,4.44-1.59.83-1.08,1.25-2.99,1.25-5.74s-.4-4.86-1.2-6.17-2.06-1.95-3.77-1.95h-.72v15.45h0Z"/>
    </g>
  </g>
</svg>