<svg width="24" height="24" viewBox="0 0 24 24" fill="none" xmlns="http://www.w3.org/2000/svg">
<g clip-path="url(#clip0_682_123419)">
<path opacity="0.2" d="M21 7.5L12 12.75L3 7.5L12 2.25L21 7.5Z" fill="black"/>
<path d="M21.6483 16.1252C21.7474 16.2972 21.7743 16.5014 21.7231 16.6931C21.6719 16.8849 21.5469 17.0485 21.3753 17.1482L12.3753 22.3982C12.2605 22.4652 12.1301 22.5004 11.9973 22.5004C11.8644 22.5004 11.734 22.4652 11.6193 22.3982L2.61926 17.1482C2.4474 17.048 2.32241 16.8836 2.27177 16.6911C2.22114 16.4987 2.24901 16.2941 2.34926 16.1222C2.44952 15.9504 2.61393 15.8254 2.80635 15.7747C2.99876 15.7241 3.2034 15.752 3.37526 15.8522L12.0003 20.8822L20.6253 15.8522C20.7972 15.7531 21.0014 15.7262 21.1932 15.7774C21.3849 15.8285 21.5486 15.9536 21.6483 16.1252ZM20.6253 11.3522L12.0003 16.3822L3.37526 11.3522C3.20437 11.2664 3.00716 11.2491 2.82394 11.3039C2.64072 11.3586 2.48533 11.4813 2.38955 11.6468C2.29377 11.8123 2.26483 12.0082 2.30864 12.1943C2.35245 12.3804 2.46571 12.5428 2.62526 12.6482L11.6253 17.8982C11.74 17.9652 11.8704 18.0004 12.0033 18.0004C12.1361 18.0004 12.2665 17.9652 12.3813 17.8982L21.3813 12.6482C21.4664 12.5986 21.5408 12.5327 21.6005 12.4542C21.6601 12.3758 21.7037 12.2864 21.7288 12.1911C21.7538 12.0959 21.7599 11.9966 21.7466 11.899C21.7333 11.8014 21.7009 11.7073 21.6513 11.6222C21.6016 11.5371 21.5357 11.4626 21.4573 11.403C21.3789 11.3434 21.2895 11.2998 21.1942 11.2747C21.0989 11.2497 20.9996 11.2436 20.902 11.2569C20.8044 11.2702 20.7104 11.3026 20.6253 11.3522ZM2.25026 7.50022C2.25053 7.36883 2.28531 7.23981 2.35112 7.12608C2.41694 7.01236 2.51147 6.91792 2.62526 6.85222L11.6253 1.60222C11.74 1.53528 11.8704 1.5 12.0033 1.5C12.1361 1.5 12.2665 1.53528 12.3813 1.60222L21.3813 6.85222C21.4946 6.91825 21.5886 7.01283 21.6539 7.12653C21.7193 7.24024 21.7536 7.36908 21.7536 7.50022C21.7536 7.63136 21.7193 7.76021 21.6539 7.87391C21.5886 7.98761 21.4946 8.08219 21.3813 8.14822L12.3813 13.3982C12.2665 13.4652 12.1361 13.5004 12.0033 13.5004C11.8704 13.5004 11.74 13.4652 11.6253 13.3982L2.62526 8.14822C2.51147 8.08252 2.41694 7.98809 2.35112 7.87436C2.28531 7.76064 2.25053 7.63162 2.25026 7.50022ZM4.48926 7.50022L12.0003 11.8822L19.5113 7.50022L12.0003 3.11822L4.48926 7.50022Z" fill="black"/>
</g>
<defs>
<clipPath id="clip0_682_123419">
<rect width="24" height="24" fill="white"/>
</clipPath>
</defs>
</svg>
