<?xml version="1.0" encoding="UTF-8"?>
<svg id="Calque_2" data-name="Calque 2" xmlns="http://www.w3.org/2000/svg" viewBox="0 0 350 350.05">
  <defs>
    <style>
      .cls-1 {
        fill: #cd163f;
      }

      .cls-2 {
        fill: #fff;
      }

      .cls-3 {
        fill: #ffed00;
      }

      .cls-4 {
        fill: #043673;
      }

      .cls-5 {
        fill: #008453;
      }
    </style>
  </defs>
  <g id="Layer_1" data-name="Layer 1">
    <g>
      <path d="M174.97,350.05c96.42,0,175.03-78.61,175.03-175.03S271.39,0,174.97,0,0,78.66,0,175.03s78.61,175.03,174.97,175.03h0Z"/>
      <path class="cls-2" d="M174.97,344.73c93.48,0,169.71-76.28,169.71-169.71S268.46,5.37,174.97,5.37,5.32,81.6,5.32,175.03s76.22,169.71,169.65,169.71h0Z"/>
      <path d="M174.97,290.34c63.52,0,115.31-51.85,115.31-115.31s-51.79-115.26-115.31-115.26-115.25,51.79-115.25,115.26c0,63.46,51.79,115.31,115.25,115.31h0Z"/>
      <path class="cls-1" d="M77.8,123.89c18.08-34.2,53.69-57.82,94.73-58.74-12.16,16.34-27.25,31-44.57,41.64-10.42,6.35-21.61,11.29-33.44,14.28-5.54,1.41-11.07,2.28-16.72,2.82h0Z"/>
      <path class="cls-1" d="M159.12,283.82c-53.04-7.76-94.03-53.64-94.03-108.79,0-15.09,3.09-29.53,8.63-42.67.16,2.61.33,5.21.6,7.76,2.71,27.04,12.59,54.72,27.63,79.97,14.71,24.54,34.37,46.74,57.17,63.74h0Z"/>
      <path class="cls-1" d="M276.28,132.36c5.54,13.14,8.63,27.58,8.63,42.67,0,55.16-40.99,101.03-94.03,108.79,22.8-16.99,42.45-39.2,57.17-63.74,15.26-25.57,25.19-53.69,27.74-81.05.22-2.23.38-4.45.49-6.68h0Z"/>
      <path class="cls-1" d="M177.42,65.15c41.1.92,76.71,24.54,94.79,58.74-4.67-.43-9.34-1.14-14.01-2.17-12.81-2.88-24.97-8.09-36.15-14.93-17.32-10.64-32.41-25.3-44.63-41.64h0Z"/>
      <path class="cls-4" d="M92.4,124.21h165.2c-13.08-2.93-25.46-8.25-36.86-15.26-17.81-10.91-33.34-26-45.77-42.83-12.38,16.83-27.85,31.92-45.71,42.83-11.4,7-23.78,12.32-36.86,15.26h0Z"/>
      <path class="cls-4" d="M118.62,185.83h-30.51c4.34,11.24,9.72,22.31,16.07,32.9,15.31,25.62,36.05,48.64,60.21,65.69,1.57.16,3.09.27,4.67.38.87-5.27.43-29.59.27-30.73-1.09-1.25-2.17-2.01-3.42-2.5-1.36-.49-2.99-.71-4.99-.76-1.9,0-3.47.16-4.99.49-1.52.27-3.09.76-4.99,1.41-1.74.54-3.15,1.09-4.67,1.09-1.63,0-3.15-.6-4.89-2.28-.33-.27-.6-.54-.92-.87-1.3-1.3-2.61-2.61-4.07-2.61-1.79.05-3.42-.16-4.89-.6-1.47-.43-2.82-1.19-3.96-2.23-2.55-2.44-2.55-5.86-2.5-8.63,0-1.19,0-2.17-.22-2.61-.33-.71-1.47-1.57-2.88-2.39-1.52-.92-3.26-1.79-4.61-2.39-2.44-1.09-3.96-2.93-4.88-5.1-.82-2.06-1.09-4.51-1.03-6.84.05-1.03.05-2.01-.11-2.88-.11-.71-.27-1.3-.6-1.63l-.05-.05c-.76-.87-1.57-1.79-2.17-2.93-.65-1.19-1.08-2.6-1.08-4.29,0-1.47.43-2.72,1.14-3.64.87-1.14,2.12-1.79,3.26-1.79,2.71-.11,5.37,2.5,7.06,4.24.16.11.27.27.43.38.76.81,1.68,1.68,2.61,2.39.92.65,1.85,1.19,2.77,1.41,1.85.43,3.31.38,4.56.32h.22c2.23-.05,3.85.22,5.21,1.09,1.36.81,2.33,2.12,3.31,4.18,1.09,2.17,1.95,2.17,3.53,2.17.54-.05,1.09-.05,1.74,0,3.53.16,4.4,1.79,5.81,4.45.22.44.43.87.71,1.25.54.98,1.03,1.74,1.57,2.39.49.54.92.92,1.3,1.19.6.33,1.14.44,1.79.6,1.09.22,2.33.49,4.29,1.74,1.19.76,2.01,1.85,2.61,3.09.54,1.2.87,2.5,1.14,3.8.6,2.61,1.03,4.94,1.95,6.68.87,1.68,2.23,2.99,4.72,3.91,0-.27.05-.55.05-.92.43-8.14.6-13.3.16-16.72-.33-3.1-1.19-4.67-2.82-5.76-4.99-3.47-10.21-6.95-14.98-10.1-4.72-2.99-9.06-5.65-12.49-7.33-.6-.11-1.25-.22-1.9-.27-.76-.05-1.41-.05-2.06-.11h-.65c-3.2-.05-6.19-.16-9.5-2.44-1.95-1.36-3.36-2.93-4.13-4.67-.71-1.68-.76-3.53.11-5.27.16-.32.33-.54.43-.76.33-.65.49-.93-.05-1.47-.87-.82-1.79-1.9-2.39-3.09-.11-.16-.22-.38-.27-.59h0Z"/>
      <path class="cls-4" d="M162.6,185.83h-28.67c.71.92,1.74,1.14,2.82,1.41,1.08.22,2.23.49,3.42,1.2.92.54,1.79,1.3,2.5,2.28.71.98,1.25,2.23,1.57,3.69.11.54.16.87.22,1.19.22,1.19.38,2.01,1.85,3.15,5.43,4.02,10.69,7.44,15.47,10.59,3.42,2.17,6.57,4.24,9.34,6.24l-.05-.05c.05,0,.11.05.16.05.05-.6,0-1.36-.11-2.17-.16-.98-.38-2.06-.6-2.93-4.07-4.89-6.62-8.25-8.14-11.13-1.63-3.15-2.06-5.7-1.79-8.9.11-1.3.49-2.55,1.3-3.69.16-.33.43-.65.71-.92h0Z"/>
      <path class="cls-4" d="M220.03,185.83h-33.34c-.49.6-.98,1.19-1.46,1.68,1.09,1.25,1.85,2.44,2.39,3.64.76,1.58,1.03,3.04,1.03,4.51-.05,3.04-1.41,5.7-3.31,8.09-1.68,2.22-3.8,4.13-5.81,5.81-.16.82-.27,1.85-.27,2.82,0,1.09.11,2.12.27,2.88.05,0,.11.05.16.11h.16q.05,0,.11-.05h.05c.65-.38,2.01-1.14,3.36-1.9,6.68-3.75,14.66-8.2,22.42-13.85.71-.54,1.14-1.09,1.47-1.74.27-.7.38-1.52.38-2.5.05-1.52.49-2.88,1.14-3.96.82-1.36,1.95-2.39,3.04-3.04,1.41-.82,2.99-.82,4.51-.76,1.3,0,2.55.05,3.09-.76.22-.27.38-.65.6-.98h0Z"/>
      <path class="cls-4" d="M180.24,284.85c1.79-.11,3.58-.22,5.37-.44,24.16-17.05,44.9-40.07,60.21-65.69,6.35-10.59,11.73-21.66,16.07-32.9h-27.09c-.27.6-.6,1.14-.92,1.63-.6.92-1.25,1.68-1.9,2.44-1.09,1.3-1.14,3.09-1.14,4.83,0,3.37,0,6.68-5.37,8.8-1.9.71-3.31,1.09-4.67,1.3-1.36.27-2.61.27-4.29.32-1.19.05-2.33.11-3.36.27-1.03.16-1.95.43-2.88,1.03-2.01,1.19-4.34,2.55-6.84,3.96-7,4.02-15.42,8.9-19.33,12.32-1.52,1.3-2.5,2.82-3.09,5.81-.6,3.2-.71,8.09-.49,16.07.05.98.05,1.3.05,1.3.11.05.71-.27,1.41-.6,1.31-.65,2.82-1.74,4.02-2.83,1.09-.98,1.84-1.84,1.95-2.28.05-.27.16-.87.27-1.52.71-3.42,1.74-8.58,4.51-10.37,1.36-.92,2.82-1.14,4.34-1.36.98-.11,1.95-.27,2.77-.6.38-.11.76-1.09,1.19-2.23,1.03-2.72,2.28-6.03,6.73-6.19.54-.05,1.09-.05,1.63-.05,2.06,0,3.75,0,4.89-2.28,1.03-2.06,1.9-3.31,3.15-4.13,1.25-.87,2.77-1.09,4.99-1.03h.6c1.63.05,4.83.16,6.52-.22,1.25-.27,1.63-.71,2.22-1.41.33-.38.65-.76,1.14-1.25.22-.22.44-.43.65-.65,1.41-1.46,2.61-2.71,5.16-2.66.87.05,1.9.16,2.82.65,1.09.59,1.85,1.63,1.85,3.47,0,1.03-.44,2.33-1.03,3.58-.6,1.3-1.52,2.66-2.33,3.58l-.05.05c-.33.32-.65,1.19-.92,2.28-.32,1.36-.54,2.88-.49,3.91.05,2.33-.05,4.45-.71,6.3-.71,2.01-2.06,3.58-4.56,4.67-.92.43-1.95.76-2.88,1.09-1.95.65-3.86,1.3-4.56,2.33-.27.38-.38,1.68-.54,3.15-.27,2.82-.54,6.19-2.77,7.71-1.14.82-2.5,1.19-4.02,1.41-1.47.22-3.04.22-4.78.22-.76,0-1.52.38-2.33.87-1.14.76-2.22,1.95-3.04,2.93-3.26,3.96-5.92,2.77-9.23,1.3-.76-.33-1.52-.65-2.33-.98-1.25-.38-2.55-.81-3.96-1.09-1.3-.27-2.66-.49-3.91-.43-2.06,0-3.86.16-5.37.65-1.36.43-2.5,1.19-3.58,2.33-.33,2.06-.27,19.27-.22,22.85.05,2.55.16,5.1.49,7.71h0Z"/>
      <path class="cls-3" d="M273.89,126.82H76.11c.22,18.62,4.13,37.73,11.02,56.46h30.84v-.22c0-.54,0-1.09.11-1.58.27-1.52.98-2.66,1.95-3.42.98-.76,2.17-1.09,3.48-1.09.54-.06,1.09,0,1.63.11,1.19.22,2.39.54,3.53,1.19,1.14.65,2.17,1.57,2.99,2.88.49.82.81,1.47,1.09,2.12h30.13c-.98-1.36-1.85-2.88-2.5-4.5-.98-2.39-1.52-4.94-1.3-7.6.11-1.47.6-2.82,1.47-4.07.65-.98,1.57-1.95,2.71-2.88-.05-.27-.11-.54-.16-.81-1.14-4.78-2.61-11.02,6.24-16.83.16-3.26.6-5.75,1.63-7.71,1.14-2.23,2.82-3.75,5.48-4.72h.87c2.66.98,4.56,2.66,5.7,5.1,1.09,2.17,1.47,4.94,1.25,8.25,7.6,7.33,4.89,13.08,3.37,16.18.98,1.03,1.85,2.23,2.5,3.53.98,1.9,1.52,3.91,1.63,5.43.16,2.61-.65,5.48-1.9,8.09-.38.87-.87,1.74-1.36,2.55h33.01c.22-.32.44-.71.65-1.09.81-1.3,1.63-2.23,2.66-2.88,1.03-.65,2.17-.98,3.42-1.09.92-.05,1.9.05,2.77.27,1.09.27,2.12.76,2.93,1.46.81.82,1.41,1.79,1.46,3.04v.27h27.47c6.89-18.73,10.8-37.84,11.02-56.46h0Z"/>
      <path class="cls-5" d="M177.52,284.91c-.87.05-1.68.05-2.55.05-1.03,0-2.06,0-3.04-.05.11-1.25.16-3.75.22-4.99.11-3.04.11-6.52.11-9.61,0-.54.05-1.03.05-1.52,0-2.82,0-6.08-.05-8.96-.05-2.88-.22-5.38-.49-6.62l-.27-.55c-1.41-1.73-2.93-2.82-4.67-3.47-1.68-.65-3.58-.87-5.92-.92-2.01-.05-3.75.16-5.48.49-1.74.38-3.37.87-5.32,1.52-1.52.49-2.77.98-3.85.92-.98,0-1.95-.38-3.15-1.52-.27-.27-.54-.54-.81-.81-1.68-1.68-3.42-3.36-5.97-3.36-1.52,0-2.88-.11-4.07-.49-1.14-.32-2.12-.87-2.99-1.68-1.74-1.63-1.68-4.45-1.68-6.68,0-1.52,0-2.83-.43-3.8-.6-1.2-2.12-2.39-3.86-3.47-1.63-.98-3.47-1.85-4.94-2.5-1.74-.76-2.88-2.12-3.53-3.75-.71-1.68-.87-3.74-.81-5.81,0-1.09,0-2.28-.16-3.31-.16-1.25-.54-2.28-1.36-3.09l.05.06c-.65-.76-1.36-1.52-1.84-2.44-.44-.81-.76-1.85-.76-3.04,0-.87.27-1.57.65-2.06.38-.49.87-.81,1.3-.81,1.57-.05,3.75,2.06,5.16,3.47.16.17.27.27.38.44.87.87,1.85,1.79,2.93,2.6,1.14.87,2.44,1.58,3.74,1.85,2.17.49,3.8.43,5.16.43h.22c1.74-.05,2.93.11,3.8.65.87.54,1.57,1.52,2.39,3.15,1.79,3.64,3.2,3.64,5.86,3.58h1.58c2.06.11,2.66,1.25,3.64,3.15.22.38.43.76.76,1.3.6,1.09,1.25,2.01,1.85,2.72.65.81,1.3,1.41,1.95,1.79.98.54,1.74.71,2.55.87.87.22,1.9.43,3.47,1.41.71.49,1.25,1.2,1.63,2.01.43.98.76,2.12.98,3.2.6,2.88,1.03,5.27,2.17,7.39,1.14,2.22,2.93,3.96,6.13,5.1,1.57.6,2.39.32,2.99-.65.44-.65.44-1.41.49-2.55.44-8.25.65-13.52.22-17.16-.49-3.96-1.68-6.03-3.96-7.54-5.05-3.47-10.26-7.01-15.09-10.1-4.83-3.15-9.34-5.87-12.87-7.6l-.33-.11c-.87-.16-1.63-.27-2.34-.32-.7-.05-1.47-.11-2.17-.11h-.71c-2.77-.11-5.43-.16-8.09-2.01-1.52-1.09-2.66-2.28-3.2-3.53-.43-1.03-.49-2.12.05-3.15.11-.22.22-.49.33-.7,1.03-1.85,1.52-2.66-.54-4.56-.71-.6-1.36-1.47-1.85-2.39-.38-.71-.65-1.47-.65-2.23,0-.38.05-.76.11-1.09.11-.87.49-1.47.98-1.79.49-.38,1.19-.6,1.95-.6.38,0,.76.05,1.14.11.92.16,1.85.43,2.71.87.76.43,1.52,1.08,2.06,2.01.6.98.87,1.74,1.14,2.44.32.71.54,1.36,1.03,2.06,1.25,1.95,2.82,2.33,4.56,2.71.87.22,1.79.38,2.66.92.65.38,1.25.87,1.68,1.58.54.7.92,1.57,1.19,2.77.06.32.11.71.22,1.03.27,1.79.49,3.04,2.82,4.78,5.37,4.02,10.75,7.49,15.63,10.64,3.37,2.23,6.52,4.23,9.23,6.19.43.27.81.49,1.19.6.43.11.87.11,1.3,0,.43-.11.81-.38,1.09-.81.16-.22.22-.43.33-.65.27-1.03.22-2.33,0-3.69-.16-1.3-.33-2.88-.92-4.07-4.02-4.83-6.57-8.09-7.98-10.86-1.36-2.61-1.74-4.78-1.52-7.49.11-.87.32-1.74.87-2.5.98-1.41,2.5-2.17,3.96-3.04-2.17-2.23-4.02-4.4-5.21-7.33-.81-2.01-1.3-4.23-1.14-6.41.11-1.03.43-1.95,1.03-2.82.92-1.36,2.17-2.33,3.47-3.31-.54-2.5-1.36-4.94-1.25-7.49.11-4.61,3.31-7.44,7-9.77.05-2.61.16-5.59,1.3-7.98.76-1.52,1.95-2.55,3.69-3.31,1.74.82,3.04,2.01,3.85,3.64,1.19,2.55,1.09,5.43.87,8.2,2.55,2.33,4.99,5.16,5.1,8.85.05,2.61-1.25,4.72-2.22,7.06,1.47,1.14,2.5,2.23,3.36,3.91.76,1.57,1.25,3.26,1.36,4.51.11,2.12-.6,4.51-1.68,6.79-1.46,3.09-3.36,5.48-5.97,7.71,1.47,1.47,2.88,2.93,3.75,4.89.54,1.14.76,2.28.76,3.36-.05,2.39-1.14,4.61-2.72,6.57-1.63,2.12-3.8,4.02-5.81,5.7-.81,1.3-.81,2.99-.81,4.5,0,1.3.11,2.61.38,3.58.05.22.16.49.33.65.27.49.71.87,1.25,1.09.6.22,1.25.33,1.9.16.22-.05.49-.16.71-.32,1.52-.87,2.44-1.36,3.36-1.9,6.73-3.75,14.87-8.31,22.69-14.01,1.14-.81,1.85-1.74,2.28-2.82.43-1.03.6-2.17.65-3.42,0-1.03.33-1.95.76-2.71.6-.98,1.36-1.68,2.06-2.12.82-.49,2.06-.43,3.2-.43,2.06.05,4.02.11,5.32-1.9.49-.76.87-1.41,1.3-2.22.38-.71.87-1.52,1.41-2.44.6-.98,1.19-1.63,1.84-2.06.65-.43,1.36-.6,2.23-.65.71-.05,1.36,0,2.01.16.7.16,1.3.49,1.79.87.38.32.6.76.6,1.3.05.22,0,.49-.05.76-.16.76-.54,1.47-1.03,2.12-.43.71-1.09,1.46-1.68,2.17-1.74,2.06-1.74,4.29-1.74,6.51,0,2.5,0,4.94-3.75,6.35-1.74.71-2.99,1.03-4.18,1.25-1.14.16-2.33.22-3.91.27-1.3.05-2.5.05-3.75.27-1.3.22-2.55.6-3.8,1.36-1.79,1.09-4.18,2.44-6.73,3.96-7.11,4.07-15.69,9.01-19.82,12.59-1.9,1.74-3.2,3.58-3.85,7.27-.65,3.42-.82,8.47-.54,16.67.05,2.33.76,3.36,1.95,3.69,1.03.27,2.01-.22,3.2-.81,1.52-.76,3.26-1.95,4.61-3.2,1.41-1.25,2.5-2.6,2.71-3.58.11-.65.22-1.09.33-1.63.6-2.98,1.46-7.49,3.36-8.74.87-.54,2.06-.7,3.31-.92,1.08-.16,2.17-.33,3.31-.76,1.41-.49,2.01-2.01,2.66-3.69.76-2.01,1.68-4.45,4.45-4.56.54-.05,1.09-.05,1.52-.05,2.99,0,5.37,0,7.22-3.69.81-1.63,1.41-2.61,2.17-3.15h.05c.76-.49,1.79-.6,3.53-.6.16,0,.32.05.6.05,1.74.05,5.1.16,7.17-.33,2.06-.43,2.66-1.14,3.64-2.28.22-.32.54-.65.92-1.03.27-.27.49-.49.71-.71.98-1.03,1.79-1.9,3.26-1.85.54,0,1.2.05,1.63.27.27.16.49.54.49,1.25,0,.65-.27,1.52-.76,2.5-.49,1.09-1.2,2.17-1.9,2.93l.05-.05c-.7.71-1.25,2.01-1.63,3.47-.38,1.58-.6,3.37-.6,4.61.05,2.06,0,3.91-.49,5.37-.49,1.36-1.46,2.45-3.2,3.2-.76.38-1.74.71-2.66.98-2.34.81-4.62,1.57-5.81,3.31-.7.98-.87,2.55-1.03,4.4-.22,2.28-.43,4.94-1.68,5.81-.76.54-1.79.81-2.93.98-1.25.22-2.72.22-4.4.22-1.3,0-2.55.49-3.75,1.3-1.41.92-2.71,2.28-3.64,3.42-2.01,2.44-3.86,1.63-6.19.6-.82-.38-1.63-.76-2.55-1.03-1.3-.49-2.77-.87-4.23-1.19-1.52-.33-3.04-.54-4.51-.54-2.28.05-4.29.22-6.08.81-1.9.65-3.53,1.68-4.99,3.36l-.27.54c-.49,2.12-.43,7.87-.38,13.03v2.66c0,2.55,0,5.43.05,8.09,0,.87.05,1.74.05,2.55.06,1.31.17,3.86.28,5.16h0Z"/>
      <path d="M177.8,153.85c-1.03,1.47-1.79,2.99-2.39,4.61-.16.54-.38,1.14-.49,1.68,0,.11-.05.22-.11.38-.16.82-.27,1.63-.33,2.5-.22,3.91.76,7.22,1.74,10.48.76,2.39,1.46,4.83,1.79,7.55,0,.16,0,.32.05.49.81-.43,1.68-1.14,2.55-2.23.38-.54.82-.98,1.41-.54.6.43.33,1.03-.11,1.57-1.19,1.58-2.5,2.55-3.75,2.99.06,1.9-.05,3.96-.33,5.87-.32,1.95-.92,3.74-1.79,5.1-.43.6-1.09,1.09-1.63.65-.65-.49-.16-1.09.22-1.68.71-1.09,1.19-2.66,1.52-4.34.27-1.74.32-3.53.32-5.21-.81.05-1.63-.11-2.33-.38-.92-.38-1.68-.98-2.23-1.74-.81-.98-1.25-2.28-1.14-3.58.05-.6.27-1.14.98-.98.76.11.71.6.65,1.25,0,.81.27,1.63.76,2.28.44.49.98.92,1.63,1.2.49.16.98.27,1.57.22-.05-.22-.05-.49-.11-.71-.27-2.61-.98-4.94-1.68-7.27-1.03-3.42-2.06-6.84-1.84-11.02.05-.82.16-1.52.27-2.28-.38-.33-.71-.65-1.03-1.09-.38-.54-.65-1.03-.87-2.01-.11-.43-.16-1.03.6-1.19.71-.16.92.38,1.03.81.16.71.32,1.03.6,1.36.05.11.11.16.16.22.11-.27.22-.6.33-.92.6-1.74,1.47-3.31,2.55-4.94.22-.38.71-.71,1.25-.33.49.33.43.87.16,1.25h0Z"/>
      <path d="M227.25,221.23c-6.13,7.39-11.62,10.15-16.45,12.65-3.91,2.01-7.38,3.8-10.53,7.76-.33.43-1.09.54-1.52.16-.44-.38-.49-1.09-.16-1.47,3.42-4.34,7.11-6.24,11.24-8.36,4.67-2.39,9.88-5.1,15.8-12.16.32-.38,1.03-.49,1.52-.11.43.38.49,1.09.11,1.52h0Z"/>
      <path d="M124.97,217.75c5.92,7.33,11.13,10.04,15.8,12.49,4.07,2.17,7.71,4.07,11.07,8.41.33.43.43,1.09-.16,1.52-.54.32-1.19.22-1.52-.22-3.04-3.96-6.51-5.81-10.37-7.82-4.83-2.55-10.31-5.37-16.5-13.03-.32-.43-.27-1.14.16-1.52.44-.38,1.19-.27,1.52.16h0Z"/>
      <polygon points="305.7 268.62 309.28 271.12 307 274.38 303.42 271.88 305.7 268.62"/>
      <polygon points="310.26 262.11 313.84 264.6 311.56 267.86 307.98 265.36 310.26 262.11"/>
      <path d="M300.54,272.64l-2.39,3.36-14.82-10.37c-2.55-1.79-4.4-3.53-5.48-5.16-1.14-1.63-1.63-3.58-1.52-5.76.11-2.17,1.03-4.5,2.77-7,1.68-2.39,3.47-4.07,5.37-4.99,1.9-.98,3.86-1.19,5.86-.76,2.06.43,4.4,1.63,7.11,3.53l14.82,10.37-2.33,3.37-14.82-10.37c-2.22-1.52-4.01-2.5-5.37-2.83-1.31-.32-2.66-.16-3.91.44-1.3.6-2.44,1.63-3.48,3.1-1.74,2.5-2.39,4.67-2.01,6.57.38,1.85,2.17,3.85,5.37,6.13l14.82,10.37h0Z"/>
      <polygon points="333.71 202.61 338.06 203.31 337.41 207.27 333.12 206.57 333.71 202.61"/>
      <polygon points="334.96 194.73 339.31 195.44 338.65 199.4 334.36 198.7 334.96 194.73"/>
      <path d="M330.84,208.47l-.65,4.13-17.86-2.82c-3.09-.49-5.48-1.25-7.22-2.22-1.74-1.03-2.98-2.5-3.85-4.5-.87-2.06-1.03-4.56-.6-7.49.49-2.93,1.36-5.21,2.66-6.9,1.25-1.68,2.93-2.77,4.94-3.26,2.01-.49,4.67-.49,7.93.05l17.86,2.82-.65,4.07-17.81-2.82c-2.71-.43-4.72-.49-6.08-.16-1.36.27-2.44.98-3.37,2.06-.87,1.14-1.46,2.55-1.74,4.34-.49,2.99-.11,5.27,1.03,6.73,1.19,1.52,3.69,2.55,7.54,3.15l17.86,2.82h0Z"/>
      <polygon points="302.28 160.91 333.55 159.83 333.71 163.9 306.13 164.87 306.62 180.29 302.93 180.4 302.28 160.91"/>
      <path d="M331.33,144.52l.98,4.02-17.53,4.34c-3.04.76-5.59,1.03-7.55.82-1.95-.27-3.74-1.14-5.32-2.66-1.57-1.52-2.71-3.75-3.42-6.68-.76-2.82-.81-5.32-.27-7.33.49-2.06,1.57-3.75,3.26-4.94,1.68-1.25,4.13-2.28,7.33-3.09l17.54-4.34,1.03,4.02-17.54,4.34c-2.66.65-4.5,1.41-5.65,2.17-1.14.82-1.9,1.9-2.28,3.26-.38,1.36-.33,2.93.11,4.67.71,2.93,1.9,4.89,3.58,5.81,1.63.92,4.34.92,8.2-.05l17.54-4.34h0Z"/>
      <polygon points="283.71 107.22 311.35 92.51 313.3 96.15 299.62 103.47 320.63 109.88 323.24 114.82 305.86 109.23 295.88 130.08 293.32 125.24 302.06 107.93 295.28 105.76 285.67 110.86 283.71 107.22"/>
      <path d="M175.68,36.75l3.96-.05c.05,1.57.38,2.88.98,3.91.65,1.09,1.63,1.95,2.99,2.66,1.36.71,2.93,1.14,4.72,1.25,1.57.11,2.99,0,4.23-.38,1.25-.38,2.17-.98,2.82-1.74.65-.82,1.03-1.68,1.09-2.66.05-.98-.16-1.85-.71-2.61-.49-.76-1.41-1.47-2.66-2.01-.82-.43-2.61-1.03-5.43-1.95-2.82-.87-4.83-1.68-5.92-2.33-1.41-.92-2.5-1.95-3.15-3.15-.65-1.19-.92-2.55-.82-3.96.11-1.57.65-3.04,1.68-4.34.98-1.3,2.33-2.23,4.13-2.82,1.74-.6,3.69-.81,5.81-.71,2.28.16,4.29.71,6.03,1.57,1.74.87,2.99,2.06,3.86,3.58.87,1.52,1.25,3.2,1.19,4.99l-3.96.05c-.11-2.01-.71-3.53-1.9-4.61-1.14-1.14-2.93-1.74-5.32-1.9-2.5-.16-4.35.16-5.54.98-1.19.81-1.85,1.9-1.95,3.2-.11,1.14.27,2.06,1.03,2.82.71.82,2.77,1.68,6.08,2.66,3.26,1.03,5.54,1.85,6.73,2.5,1.79.98,3.04,2.12,3.8,3.47.82,1.36,1.14,2.88,1.03,4.51-.16,1.68-.71,3.2-1.79,4.61-1.03,1.41-2.5,2.44-4.34,3.15-1.85.71-3.86.98-6.08.82-2.83-.22-5.16-.76-7-1.74-1.85-.98-3.26-2.33-4.24-4.02-.98-1.74-1.41-3.69-1.36-5.75h0Z"/>
      <polygon points="137.79 52.44 130.73 21.93 152.77 16.83 153.58 20.41 135.61 24.59 137.73 33.93 154.61 30.02 155.43 33.6 138.6 37.51 140.99 47.88 159.72 43.59 160.53 47.18 137.79 52.44"/>
      <path d="M129.37,53.26c1.36-2.55,1.74-5.54,1.14-9.01l-4.23.71c.54,2.66.38,4.89-.54,6.79-.92,1.9-2.44,3.31-4.56,4.23-1.74.76-3.58,1.03-5.48.81-1.9-.22-3.58-1.09-5.1-2.61-1.52-1.47-2.82-3.47-3.91-5.86-.81-1.9-1.36-3.85-1.52-5.92-.22-2.01.16-3.91,1.19-5.65,1.03-1.68,2.61-3.04,4.83-4.02,1.9-.87,3.69-1.09,5.37-.71,1.68.43,3.31,1.47,4.89,3.26l3.37-2.5c-1.95-2.33-4.24-3.75-6.84-4.34-2.61-.6-5.32-.27-8.2,1.03-2.5,1.14-4.56,2.72-6.13,4.78-1.57,2.12-2.44,4.51-2.61,7.22-.16,2.77.44,5.59,1.74,8.58,1.25,2.71,2.88,5.05,4.94,7,2.06,1.9,4.34,3.09,6.84,3.47,1.83.28,3.81.09,5.96-.57l.33,3.78c.92-.38,1.63-.65,2.12-.71.44-.05.81,0,1.03.11.22.11.38.32.49.54.76,1.57-1.57,3.04-2.5,3.42-.38.16-.98.43-1.85.76l-.05,2.06c.92-.22,2.71-.82,3.75-1.3,1.9-.81,3.15-1.85,3.74-2.99.6-1.14.71-2.23.27-3.2-.33-.71-.87-1.2-1.68-1.47-.81-.33-1.79-.27-3.37.22l-.16-2.01c.09-.04.18-.07.27-.11,2.99-1.3,5.16-3.26,6.46-5.81h0Z"/>
      <polygon points="86.37 82.08 67.1 57.44 70.36 54.89 78.29 65.04 91.1 54.99 83.17 44.84 86.48 42.29 105.75 66.99 102.44 69.54 93.38 57.93 80.57 67.92 89.63 79.53 86.37 82.08"/>
      <polygon points="93.16 283.88 103.09 276.44 99.13 288.33 108.74 295.55 96.74 295.55 93.16 306.51 89.58 295.55 77.63 295.55 87.19 288.33 83.28 276.44 93.16 283.88"/>
      <path d="M199.08,304.78l-.87-3.31,18.3-4.56.71,2.71c-1.3,2.33-2.5,5.32-3.47,8.96-.98,3.58-1.52,7.22-1.63,10.8-.11,2.55.11,5.27.6,8.09l-3.58.92c-.49-2.23-.71-5.05-.71-8.42.05-3.36.54-6.68,1.36-9.99.82-3.31,1.85-6.19,3.15-8.63l-13.84,3.42h0Z"/>
      <path d="M134.26,326.71l-3.42-1.03,6.13-21.33-6.19-1.85.87-2.88c3.75.98,5.75,1.08,8.14-1.79l2.55.71-8.09,28.18h0Z"/>
      <polygon points="256.89 283.88 246.91 276.44 250.87 288.33 241.26 295.55 253.26 295.55 256.89 306.51 260.48 295.55 272.42 295.55 262.87 288.33 266.72 276.44 256.89 283.88"/>
      <polygon points="77.14 258.36 51.47 276.33 39.36 259.01 42.4 256.9 52.12 270.85 60.1 265.25 51.63 253.26 54.67 251.09 63.08 263.14 74.76 254.99 77.14 258.36"/>
      <polygon points="46.74 183.5 15.42 182.41 16.23 159.88 19.92 159.99 19.27 178.39 28.83 178.77 29.48 161.51 33.12 161.56 32.52 178.88 43.16 179.26 43.87 160.1 47.56 160.21 46.74 183.5"/>
      <polygon points="51.74 212.97 20.85 217.86 20.14 213.68 41.86 193.59 17.59 197.45 16.99 193.54 47.88 188.6 48.53 192.83 26.82 212.92 51.14 209.07 51.74 212.97"/>
      <polygon points="62.87 238.06 34.26 250.76 25.08 230.08 28.45 228.61 35.94 245.49 44.73 241.58 37.68 225.79 41.04 224.27 48.1 240.12 57.82 235.78 50 218.19 53.37 216.72 62.87 238.06"/>
      <path d="M176.01,318.24c-.27-3.47-.16-6.24.38-8.42.49-2.12,1.41-3.86,2.71-5.1,1.3-1.25,2.99-2.01,5.11-2.17,1.57-.11,2.93.05,4.18.6,1.25.49,2.28,1.36,3.15,2.44.87,1.14,1.57,2.5,2.17,4.18.6,1.63,1.03,3.91,1.25,6.79.33,3.42.22,6.19-.33,8.36-.49,2.12-1.41,3.85-2.71,5.1-1.3,1.25-2.99,2.01-5.1,2.17-2.82.27-5.1-.54-6.89-2.44-2.12-2.23-3.42-6.08-3.91-11.51h0ZM179.7,317.92c.44,4.78,1.25,7.87,2.5,9.34,1.25,1.52,2.71,2.17,4.34,2.01,1.63-.11,2.93-1.03,3.91-2.71.98-1.68,1.25-4.89.87-9.66-.43-4.78-1.25-7.93-2.5-9.39-1.3-1.47-2.71-2.12-4.4-1.95-1.63.11-2.88.92-3.75,2.39-1.09,1.9-1.41,5.21-.98,9.99h0Z"/>
      <path d="M149.67,323.29l3.42.11c.11,1.63.49,2.82,1.25,3.69.71.81,1.74,1.3,2.99,1.47,1.09.11,2.06,0,2.99-.43.87-.38,1.63-.98,2.23-1.74.65-.76,1.25-1.85,1.79-3.2.49-1.41.87-2.82,1.03-4.29,0-.16.05-.38.05-.71-.82,1.03-1.9,1.85-3.2,2.39-1.36.54-2.71.76-4.13.54-2.44-.27-4.34-1.41-5.81-3.31-1.41-1.95-1.95-4.34-1.63-7.17.38-2.99,1.52-5.21,3.48-6.79,1.95-1.57,4.23-2.23,6.84-1.9,1.9.22,3.53.98,4.99,2.17,1.41,1.19,2.39,2.77,2.99,4.78.6,1.95.65,4.72.22,8.25-.43,3.69-1.19,6.62-2.28,8.69-1.09,2.12-2.5,3.64-4.18,4.56-1.74.98-3.69,1.3-5.81,1.03-2.28-.27-4.02-1.14-5.32-2.55-1.25-1.41-1.9-3.31-1.9-5.59h0ZM165.74,312.27c.27-2.01-.05-3.69-1.03-5.05-.92-1.3-2.17-2.06-3.69-2.28-1.57-.16-3.04.33-4.34,1.47-1.36,1.14-2.12,2.71-2.39,4.78-.22,1.85.16,3.42,1.14,4.67.98,1.3,2.28,2.06,3.91,2.28,1.63.16,3.04-.22,4.23-1.25,1.19-1.03,1.95-2.55,2.17-4.62h0Z"/>
      <path d="M66.72,105.76l-16.78-29.05,2.82-3.47,32.41,9.72-2.99,3.69-9.66-3.15-8.25,10.21,5.21,8.63-2.77,3.42h0ZM62.43,90.61l6.68-8.25s-13.63-4.56-15.26-5.27c1.3,1.57,8.58,13.52,8.58,13.52h0Z"/>
      <path d="M55.81,127.36l-27.63-14.71,5.48-10.37c1.14-2.12,2.33-3.64,3.53-4.61,1.25-.98,2.66-1.52,4.18-1.63,1.57-.11,2.99.16,4.24.81,1.19.65,2.12,1.57,2.82,2.77.71,1.19,1.03,2.61.98,4.23,1.41-1.41,2.93-2.23,4.56-2.5,1.68-.27,3.31,0,4.94.87,1.25.65,2.33,1.57,3.15,2.71.81,1.14,1.3,2.28,1.52,3.42.16,1.14.05,2.39-.27,3.75-.33,1.36-.98,2.93-1.9,4.72l-5.59,10.53h0ZM54.45,121.93l3.69-6.84c.6-1.19,1.03-2.06,1.19-2.55.27-.92.43-1.79.38-2.55-.05-.76-.33-1.47-.81-2.23-.49-.71-1.14-1.3-2.06-1.74-.98-.54-2.06-.76-3.09-.65-1.03.11-1.95.54-2.77,1.36-.81.76-1.68,2.01-2.61,3.8l-3.37,6.35,9.45,5.05h0ZM41.69,115.15l3.2-5.97c.87-1.57,1.36-2.82,1.52-3.64.22-1.09.16-2.01-.27-2.82-.38-.81-1.03-1.47-2.01-2.01-.92-.49-1.85-.71-2.77-.65-.92.11-1.74.49-2.44,1.14-.7.71-1.57,2.01-2.61,4.02l-2.93,5.54,8.3,4.4h0Z"/>
      <path d="M48.05,156.13l-30.51-7.06,3.15-13.52c.6-2.71,1.36-4.72,2.23-6.03.87-1.25,2.12-2.17,3.69-2.71,1.57-.54,3.2-.6,4.89-.22,2.17.54,3.85,1.63,4.99,3.37,1.14,1.74,1.63,4.13,1.36,7.17.76-.98,1.41-1.63,2.06-2.06,1.36-.98,2.99-1.74,4.83-2.44l9.5-3.37-1.14,5.05-7.28,2.61c-2.12.71-3.75,1.36-4.89,1.9-1.14.54-2.01,1.09-2.5,1.57-.54.54-.98,1.09-1.25,1.68-.22.43-.44,1.14-.65,2.23l-1.09,4.67,13.52,3.15-.92,4.02h0ZM31.92,148.15l2.01-8.69c.43-1.85.6-3.31.43-4.45-.16-1.14-.54-2.06-1.3-2.77-.7-.76-1.52-1.25-2.55-1.47-1.41-.33-2.72-.11-3.91.76-1.14.81-2.01,2.39-2.55,4.61l-2.23,9.66,10.1,2.33h0Z"/>
      <path d="M256.62,75.79l22.53-21.72,9.61,9.99c1.95,2.01,3.26,3.69,3.85,5.16.6,1.41.65,2.93.27,4.56-.43,1.63-1.25,2.99-2.5,4.23-1.63,1.52-3.42,2.28-5.54,2.33-2.12,0-4.34-.92-6.73-2.77.38,1.14.6,2.12.6,2.88.05,1.63-.16,3.42-.6,5.37l-2.34,9.83-3.64-3.75,1.85-7.55c.49-2.17.81-3.85,1.03-5.1.16-1.25.16-2.28,0-2.99-.11-.71-.38-1.36-.71-1.95-.22-.38-.76-.98-1.47-1.74l-3.36-3.48-9.99,9.66-2.88-2.99h0ZM272.09,66.61l6.19,6.41c1.3,1.36,2.5,2.33,3.47,2.82,1.03.49,2.06.6,3.04.43,1.03-.22,1.9-.65,2.61-1.36,1.09-1.03,1.58-2.28,1.52-3.69-.05-1.47-.92-2.99-2.5-4.67l-6.89-7.11-7.44,7.17h0Z"/>
      <path d="M235.67,45.28c2.5-4.56,5.7-7.44,9.56-8.63,3.85-1.25,7.76-.76,11.62,1.36,2.5,1.41,4.45,3.26,5.81,5.59,1.36,2.33,1.95,4.89,1.85,7.66-.11,2.71-.98,5.48-2.5,8.2-1.52,2.82-3.47,5-5.81,6.51-2.33,1.57-4.83,2.39-7.49,2.39-2.71-.05-5.21-.71-7.6-2.01-2.55-1.47-4.56-3.31-5.86-5.7-1.36-2.39-1.95-4.94-1.79-7.65.16-2.77.87-5.32,2.23-7.71h0ZM239.36,47.39c-1.84,3.31-2.39,6.41-1.68,9.28.76,2.88,2.44,5.05,5.11,6.57,2.77,1.47,5.54,1.79,8.36.81,2.82-.92,5.21-3.15,7.17-6.68,1.25-2.23,1.9-4.4,2.12-6.46.16-2.06-.27-3.96-1.19-5.7-.92-1.74-2.34-3.09-4.13-4.07-2.55-1.41-5.27-1.79-8.09-1.03-2.82.71-5.37,3.15-7.66,7.27h0Z"/>
      <path d="M203.58,49.89l9.66-29.8,11.24,3.69c2.01.6,3.48,1.2,4.45,1.74,1.36.7,2.44,1.57,3.2,2.61.76.98,1.25,2.17,1.47,3.64.22,1.41.05,2.88-.43,4.34-.81,2.5-2.28,4.4-4.51,5.65-2.17,1.19-5.37,1.14-9.56-.22l-7.65-2.5-3.91,12.11-3.96-1.25h0ZM212.59,35.56l7.71,2.5c2.55.82,4.51.92,5.86.33,1.41-.6,2.39-1.74,2.93-3.47.38-1.25.43-2.44.11-3.53-.38-1.09-.98-1.95-1.96-2.55-.59-.38-1.79-.87-3.58-1.46l-7.6-2.44-3.48,10.64h0Z"/>
      <path d="M297.29,212.7l29.26,11.24-4.23,10.97c-.87,2.23-1.85,3.91-2.93,4.99-1.14,1.14-2.44,1.85-3.97,2.12-1.52.33-2.93.22-4.29-.32-1.25-.49-2.34-1.25-3.15-2.33-.87-1.14-1.36-2.5-1.52-4.13-1.19,1.58-2.55,2.61-4.18,3.04-1.63.49-3.31.44-4.99-.27-1.36-.49-2.5-1.3-3.47-2.33-.98-1.03-1.58-2.06-1.9-3.15-.33-1.09-.38-2.39-.22-3.75.16-1.41.6-3.04,1.3-4.94l4.29-11.13h0ZM299.24,217.92l-2.77,7.27c-.49,1.25-.76,2.12-.87,2.66-.16.98-.22,1.79-.05,2.55.11.76.49,1.42,1.03,2.12.6.65,1.3,1.14,2.28,1.52,1.09.38,2.12.49,3.15.22,1.03-.22,1.85-.81,2.55-1.68.71-.81,1.41-2.23,2.17-4.07l2.55-6.73-10.04-3.85h0ZM312.76,223.07l-2.44,6.35c-.65,1.68-.98,2.98-1.09,3.8-.05,1.09.16,2.01.65,2.77.49.76,1.19,1.36,2.22,1.74.98.38,1.9.49,2.83.27.92-.16,1.68-.65,2.28-1.41.6-.76,1.3-2.17,2.12-4.29l2.28-5.81-8.85-3.42h0Z"/>
    </g>
  </g>
</svg>